<?xml version="1.0" encoding="UTF-8" standalone="no"?>
<svg
   width="300"
   height="120"
   viewBox="0 0 300 130"
   version="1.1"
   xmlns="http://www.w3.org/2000/svg">
  <g>
    <path 
      transform="scale(0.2) translate(-10,-80)"
      fill="none"
      stroke-opacity=".7"
      stroke="#ffa73e" 
      paint-order="fill stroke markers" 
      d="M 44 571.9758870764813 L 45 574.5416950745334 L 46 577.0259648400424 L 47 579.4275223787124 L 48 581.7452327836619 L 49 583.9780007717486 L 50 586.1247712011684 L 51 588.1845295700849 L 52 590.1563024960542 L 53 592.0391581760166 L 54 593.8322068266406 L 55 595.5346011048084 L 56 597.1455365080463 L 57 598.664251754709 L 58 600.0900291437392 L 59 601.422194893833 L 60 602.6601194618489 L 61 603.8032178403128 L 62 604.8509498338739 L 63 605.8028203145874 L 64 606.6583794558965 L 65 607.4172229452074 L 66 608.0789921749567 L 67 608.6433744120782 L 68 609.1101029457918 L 69 609.4789572136433 L 70 609.7497629057359 L 71 609.9223920471038 L 72 609.9967630581901 L 73 609.9728407933982 L 74 609.8506365577009 L 75 609.6302081012983 L 76 609.3116595923261 L 77 608.8951415676295 L 78 608.380850861623 L 79 607.7690305132728 L 80 607.0599696512431 L 81 606.2540033572627 L 82 605.3515125077746 L 83 604.3529235939451 L 84 603.2587085201161 L 85 602.0693843807968 L 86 600.7855132162998 L 87 599.4077017471373 L 88 597.9366010873016 L 89 596.3729064365684 L 90 594.717356751965 L 91 592.9707343985602 L 92 591.1338647797418 L 93 589.207615947154 L 94 587.1928981904817 L 95 585.0906636072741 L 96 582.9019056530096 L 97 580.6276586716189 L 98 578.268997406683 L 99 575.8270364935404 L 100 573.3029299325428 L 101 570.6978705437077 L 102 568.013089403026 L 103 565.249855260691 L 104 562.4094739415236 L 105 559.4932877278771 L 106 556.5026747253135 L 107 553.4390482113498 L 108 550.3038559675848 L 109 547.0985795955186 L 110 543.8247338163902 L 111 540.4838657553648 L 112 537.0775542104061 L 113 533.6074089061825 L 114 530.075069733357 L 115 526.482205973623 L 116 522.830515510849 L 117 519.1217240287081 L 118 515.3575841951699 L 119 511.53987483423913 L 120 507.6704000853358 L 121 503.7509885507103 L 122 499.7834924312988 L 123 495.7697866514263 L 124 491.71176797277184 L 125 487.6113540980133 L 126 483.4704827645764 L 127 479.29111082891586 L 128 475.07521334176147 L 129 470.8247826147659 L 130 466.5418272789959 L 131 462.228371335711 L 132 457.8864531998788 L 133 453.5181247368786 L 134 449.12545029284945 L 135 444.7105057191394 L 136 440.275377391318 L 137 435.82216122321495 L 138 431.35296167645237 L 139 426.8698907659365 L 140 422.37506706178 L 141 417.87061468812755 L 142 413.3586623193551 L 143 408.8413421741204 L 144 404.3207890077377 L 145 399.79913910335375 L 146 395.27852926240195 L 147 390.7610957948119 L 148 386.24897350945076 L 149 381.7442947052738 L 150 377.2491881636618 L 151 372.76577814241995 L 152 368.29618337191505 L 153 363.8425160538246 L 154 359.40688086297115 L 155 354.99137395271356 L 156 350.5980819643652 L 157 346.2290810411077 L 158 341.8864358468654 L 159 337.5721985906049 L 160 333.28840805651936 L 161 329.0370886405591 L 162 324.8202493937595 L 163 320.639883072822 L 164 316.49796519839407 L 165 312.3964531214955 L 166 308.33728509853074 L 167 304.32237937532466 L 168 300.3536332806149 L 169 296.4329223294287 L 170 292.5620993367693 L 171 288.74299354202805 L 172 284.9774097445392 L 173 281.2671274506837 L 174 277.61390003294525 L 175 274.01945390131783 L 176 270.48548768745337 L 177 267.01367144193773 L 178 263.6056458450729 L 179 260.2630214315386 L 180 256.9873778293004 L 181 253.78026301312238 L 182 250.64319257303973 L 183 247.57764899813378 L 184 244.58508097595094 L 185 241.6669027078945 L 186 238.82449324091365 L 187 236.05919581580613 L 188 233.3723172324406 L 189 230.76512723220156 L 190 228.23885789794534 L 191 225.7947030717536 L 192 223.4338177907583 L 193 221.15731774130379 L 194 218.9662787317062 L 195 216.86173618385695 L 196 214.8446846439124 L 197 212.91607731230027 L 198 211.0768255932641 L 199 209.32779866416007 L 200 207.6698230647091 L 201 206.1036823063975 L 202 204.63011650221253 L 203 203.24982201688587 L 204 201.96345113781197 L 205 200.77161176679596 L 206 199.67486713277637 L 207 198.67373552565982 L 208 197.76869005139173 L 209 196.96015840838038 L 210 196.24852268537887 L 211 195.63411918092098 L 212 195.11723824439613 L 213 194.6981241388388 L 214 194.37697492549657 L 215 194.15394237023241 L 216 194.0291318718042 L 217 194.0026024120566 L 218 194.07436652804768 L 219 194.24439030612444 L 220 194.51259339794936 L 221 194.87884905847065 L 222 195.34298420581845 L 223 195.9047795030982 L 224 196.56396946204308 L 225 197.3202425684759 L 226 198.17324142952185 L 227 199.12256294250224 L 228 200.1677584854288 L 229 201.30833412900998 L 230 202.5437508700672 L 231 203.87342488625268 L 232 205.29672781194685 L 233 206.81298703520565 L 234 208.42148601561797 L 235 210.1214646229215 L 236 211.91211949621896 L 237 213.79260442362283 L 238 215.7620307421507 L 239 217.81946775768236 L 240 219.96394318477823 L 241 222.19444360615398 L 242 224.5099149515923 L 243 226.90926299606565 L 244 229.39135387683606 L 245 231.9550146292858 L 246 234.59903374122624 L 247 237.32216172542437 L 248 240.1231117100735 L 249 243.00056004693275 L 250 245.95314693684458 L 251 248.97947707233638 L 252 252.0781202970034 L 253 255.24761228135847 L 254 258.4864552148328 L 255 261.7931185135977 L 256 265.16603954387386 L 257 268.6036243603884 L 258 272.10424845962575 L 259 275.66625754752283 L 260 279.28796832123965 L 261 282.9676692646399 L 262 286.7036214571048 L 263 290.49405939529584 L 264 294.3371918274818 L 265 298.231202600032 L 266 302.17425151567824 L 267 306.16447520313943 L 268 310.1999879976969 L 269 314.27888283230476 L 270 318.39923213881576 L 271 322.5590887588934 L 272 326.75648686418367 L 273 330.9894428853088 L 274 335.2559564492441 L 275 339.554011324638 L 276 343.8815763746234 L 277 348.2366065166758 L 278 352.61704368905947 L 279 357.02081782340815 L 280 361.4458478229803 L 281 365.8900425461246 L 282 370.3513017944941 L 283 374.827517305539 L 284 379.31657374881036 L 285 383.8163497256053 L 286 388.32471877147776 L 287 392.83955036114537 L 288 397.35871091531374 L 289 401.8800648089442 L 290 406.40147538048944 L 291 410.920805941618 L 292 415.43592078695065 L 293 419.94468620333487 L 294 424.44497147817435 L 295 428.934649906344 L 296 433.4115997952087 L 297 437.8737054672737 L 298 442.3188582599938 L 299 446.7449575222656 L 300 451.1499116071355 L 301 455.5316388602513 L 302 459.88806860359153 L 303 464.2171421140096 L 304 468.51681359612553 L 305 472.7850511491109 L 306 477.01983772690653 L 307 481.2191720914194 L 308 485.38106975825144 L 309 489.5035639345084 L 310 493.5847064482507 L 311 497.6225686691425 L 312 501.61524241986666 L 313 505.56084087787525 L 314 509.45749946704706 L 315 513.3033767388317 L 316 517.0966552424671 L 317 520.8355423838518 L 318 524.5182712726756 L 319 528.1431015574 L 320 531.7083202476972 L 321 535.2122425239623 L 322 538.6532125335082 L 323 542.0296041730749 L 324 545.3398218572796 L 325 548.5823012726429 L 326 551.7555101168397 L 327 554.8579488228198 L 328 557.8881512674616 L 329 560.8446854644184 L 330 563.7261542408339 L 331 566.5311958976071 L 332 569.2584848528901 L 333 571.9067322685218 L 334 574.4746866590945 L 335 576.96113448337 L 336 579.3649007177646 L 337 581.684849411631 L 338 583.919884224076 L 339 586.0689489420597 L 340 588.1310279795309 L 341 590.1051468573647 L 342 591.9903726638723 L 343 593.7858144956685 L 344 595.4906238786873 L 345 597.1039951691457 L 346 598.6251659342684 L 347 600.0534173125909 L 348 601.3880743536732 L 349 602.6285063370619 L 350 603.77412707035 L 351 604.8243951661949 L 352 605.778814298163 L 353 606.6369334352778 L 354 607.3983470551661 L 355 608.0626953356943 L 356 608.6296643250113 L 357 609.0989860899124 L 358 609.470438842457 L 359 609.7438470447796 L 360 609.9190814920429 L 361 609.9960593734975 L 362 609.9747443116148 L 363 609.8551463792791 L 364 609.6373220950262 L 365 609.3213743963355 L 366 608.9074525909838 L 367 608.3957522864874 L 368 607.7865152976634 L 369 607.0800295323547 L 370 606.2766288553737 L 371 605.3766929307264 L 372 604.3806470421957 L 373 603.2889618923627 L 374 602.1021533801677 L 375 600.8207823571103 L 376 599.4454543622076 L 377 597.9768193358341 L 378 596.4155713125779 L 379 594.7624480932604 L 380 593.0182308962736 L 381 591.1837439883968 L 382 589.2598542952742 L 383 587.2474709917294 L 384 585.1475450721159 L 385 582.9610689009046 L 386 580.6890757437212 L 387 578.3326392790544 L 388 575.892873090866 L 389 573.3709301423443 L 390 570.7680022310457 L 391 568.085319425686 L 392 565.324149484846 L 393 562.4857972578644 L 394 559.571604068204 L 395 556.5829470795809 L 396 553.5212386451568 L 397 550.3879256401008 L 398 547.1844887778392 L 399 543.9124419103118 L 400 540.5733313125701 L 401 537.1687349520507 L 402 533.7002617428758 L 403 530.1695507855246 L 404 526.5782705922422 L 405 522.9281182985496 L 406 519.220818861226 L 407 515.4581242431425 L 408 511.6418125853374 L 409 507.77368736671633 L 410 503.8555765517809 L 411 499.88933172678395 L 412 495.8768272247253 L 413 491.8199592395949 L 414 487.7206449302854 L 415 483.58082151459985 L 416 479.40244535377764 L 417 475.18749102797335 L 418 470.9379504031292 L 419 466.65583168967567 L 420 462.34315849350793 L 421 458.00196885969007 L 422 453.6343143093326 L 423 449.2422588701031 L 424 444.8278781008251 L 425 440.3932581106306 L 426 435.9404945731243 L 427 431.47169173602725 L 428 426.98896142677233 L 429 422.4944220545146 L 430 417.99019760903053 L 431 413.47841665698445 L 432 408.9612113360274 L 433 404.4407163472113 L 434 399.91906794618916 L 435 395.3984029336844 L 436 390.8808576456994 L 437 386.3685669439437 L 438 381.8636632069616 L 439 377.36827532243103 L 440 372.884527681111 L 441 368.41453917291835 L 442 363.9604221855999 L 443 359.52428160647816 L 444 355.1082138277442 L 445 350.71430575576187 L 446 346.3446338248565 L 447 342.0012630160506 L 448 337.6862458812153 L 449 333.40162157309277 L 450 329.14941488164993 L 451 324.9316352772235 L 452 320.7502759609009 L 453 316.60731292259015 L 454 312.50470400722566 L 455 308.4443879895461 L 456 304.4282836578859 L 457 300.4582889074098 L 458 296.53627984322424 L 459 292.6641098937834 L 460 288.8436089350111 L 461 285.0765824255561 L 462 281.36481055358377 L 463 277.71004739550904 L 464 274.1140200870726 L 465 270.5784280071455 L 466 267.1049419746502 L 467 263.69520345898235 L 468 260.35082380429776 L 469 257.0733834680384 L 470 253.86443127405292 L 471 250.72548368066822 L 472 247.65802406405467 L 473 244.6635020172242 L 474 241.74333266499605 L 475 238.89889599524872 L 476 236.13153620677693 L 477 233.44256107406332 L 478 230.8332413292609 L 479 228.30481006168222 L 480 225.85846213507605 L 481 223.4953536229704 L 482 221.21660126234497 L 483 219.02328192589263 L 484 216.91643211312186 L 485 214.89704746053619 L 486 212.9660822711246 L 487 211.12444906338658 L 488 209.3730181401014 L 489 207.71261717704795 L 490 206.1440308318697 L 491 204.66800037326774 L 492 203.28522333069853 L 493 201.99635316474138 L 494 200.80199895829236 L 495 199.70272512872893 L 496 198.69905116118235 L 497 197.7914513630445 L 498 196.98035463982353 L 499 196.2661442924554 L 500 195.64915783616726 L 501 195.12968684097712 L 502 194.70797679390645 L 503 194.38422698297012 L 504 194.15859040299844 L 505 194.03117368333642 L 506 194.00203703745368 L 507 194.07119423448938 L 508 194.23861259274528 L 509 194.50421299513016 L 510 194.86786992654828 L 511 195.32941153321423 L 512 195.88861970386608 L 513 196.54523017283844 L 514 197.29893264494675 L 515 198.14937094212388 L 516 199.09614317173993 L 517 200.13880191652441 L 518 201.27685444600334 L 519 202.5097629493494 L 520 203.83694478953558 L 521 205.25777277867263 L 522 206.77157547440055 L 523 208.37763749719213 L 524 210.07519986842112 L 525 211.86346036903348 L 526 213.74157391865353 L 527 215.7086529749437 L 528 217.76376795303187 L 529 219.90594766480686 L 530 222.13417977787313 L 531 224.44741129395015 L 532 226.84454904648982 L 533 229.32446021727407 L 534 231.88597287175304 L 535 234.52787651286786 L 536 237.24892265309566 L 537 240.0478254044495 L 538 242.9232620861515 L 539 245.87387384969486 L 540 248.89826632099465 L 541 251.99501025932994 L 542 255.16264223276227 L 543 258.39966530971003 L 544 261.70454976635585 L 545 265.0757338095509 L 546 268.5116243148716 L 547 272.0105975794854 L 548 275.5710000894656 L 549 279.19114930119514 L 550 282.86933443648684 L 551 286.6038172910486 L 552 290.39283305590953 L 553 294.234591151416 L 554 298.127276073409 L 555 302.0690482511798 L 556 306.0580449167965 L 557 310.0923809853951 L 558 314.1701499460174 L 559 318.28942476257106 L 560 322.44825878449296 L 561 326.64468666667904 L 562 330.8767252982515 L 563 335.1423747397174 L 564 339.43961916808405 L 565 343.7664278294792 L 566 348.1207559988252 L 567 352.50054594611794 L 568 356.90372790885215 L 569 361.32822107012885 L 570 365.7719345419913 L 571 370.23276835351754 L 572 374.7086144432075 L 573 379.19735765519016 L 574 383.69687673878593 L 575 388.2050453509503 L 576 392.7197330611193 L 577 397.2388063579915 L 578 401.76012965776454 L 579 406.2815663133484 L 580 410.8009796240844 L 581 415.3162338454894 L 582 419.825195198545 L 583 424.3257328780613 L 584 428.81572005963335 L 585 433.29303490471875 L 586 437.75556156335483 L 587 442.2011911740497 L 588 446.6278228603706 L 589 451.03336472375497 L 590 455.41573483208293 L 591 459.7728622035394 L 592 464.102687785298 L 593 468.4031654265718 L 594 472.6722628455644 L 595 476.90796258986916 L 596 481.1082629898569 L 597 485.2711791046084 L 598 489.3947436599413 L 599 493.4770079780851 L 600 497.5160428985711 L 601 501.50993968989917 L 602 505.4568109515471 L 603 509.35479150590277 L 604 513.2020392796944 L 605 516.9967361744991 L 606 520.7370889259253 L 607 524.4213299510571 L 608 528.0477181837643 L 609 531.6145398974783 L 610 535.1201095150503 L 611 538.5627704053084 L 612 541.9408956659306 L 613 545.2528888922743 L 614 548.497184931791 L 615 551.6722506236706 L 616 554.7765855233708 L 617 557.8087226116828 L 618 560.7672289880036 L 619 563.6507065474818 L 620 566.4577926417227 L 621 569.1871607227372 L 622 571.8375209698287 L 623 574.407620899126 L 624 576.8962459554718 L 625 579.302220086385 L 626 581.6244062978296 L 627 583.8617071915266 L 628 586.0130654835514 L 629 588.0774645039758 L 630 590.0539286773173 L 631 591.9415239835686 L 632 593.739358399587 L 633 595.44658232064 L 634 597.0623889619039 L 635 598.5860147397266 L 636 600.0167396324752 L 637 601.3538875207984 L 638 602.5968265071397 L 639 603.7449692143551 L 640 604.7977730632898 L 641 605.7547405291862 L 642 606.615419376799 L 643 607.3794028741089 L 644 608.046329984533 L 645 608.6158855375392 L 646 609.0878003775872 L 647 609.4618514913243 L 648 609.7378621129736 L 649 609.9157018078702 L 650 609.9952865340993 L 651 609.9765786822129 L 652 609.8595870930026 L 653 609.644367053322 L 654 609.3310202699593 L 655 608.9196948215736 L 656 608.4105850887179 L 657 607.8039316619797 L 658 607.100021228285 L 659 606.2991864354185 L 660 605.4018057348238 L 661 604.4083032027579 L 662 603.3191483398854 L 663 602.1348558494058 L 664 600.8559853938191 L 665 599.4831413304466 L 666 598.0169724258283 L 667 596.458171549134 L 668 594.8074753447346 L 669 593.0656638840842 L 670 591.2335602970809 L 671 589.3120303830799 L 672 587.3019822017415 L 673 585.2043656439073 L 674 583.0201719827107 L 675 580.7504334051289 L 676 578.3962225242011 L 677 575.9586518721426 L 678 573.4388733745942 L 679 570.8380778062557 L 680 568.1574942281587 L 681 565.3983894068498 L 682 562.5620672157518 L 683 559.6498680189908 L 684 556.6631680379795 L 685 553.603378701054 L 686 550.471945976474 L 687 547.2703496890985 L 688 544.000102821065 L 689 540.662750796797 L 690 537.2598707526803 L 691 533.793070791755 L 692 530.2639892237717 L 693 526.6742937909729 L 694 523.0256808799676 L 695 519.3198747200669 L 696 515.5586265684622 L 697 511.7437138826333 L 698 507.8769394803722 L 699 503.9601306878234 L 700 499.9951384759416 L 701 495.9838365857777 L 702 491.928120643002 L 703 487.82990726208504 L 704 483.69113314056295 L 705 479.51375414380885 L 706 475.2997443807464 L 707 471.0510952709447 L 708 466.7698146035294 L 709 462.4579255883604 L 710 458.1174658999195 L 711 453.75048671436633 L 712 449.35905174021053 L 713 444.9452362430617 L 714 440.5111260649206 L 715 436.05881663846924 L 716 431.5904119968291 L 717 427.10802377925734 L 718 422.6137702332462 L 719 418.10977521349906 L 720 413.59816717826016 L 721 409.08107818346514 L 722 404.56064287519337 L 723 400.0389974808947 L 724 395.51827879987155 L 725 391.00062319348865 L 726 386.48816557558865 L 727 381.98303840359574 L 728 377.4873706707767 L 729 373.00328690013896 L 730 368.53290614044414 L 731 364.0783409648056 L 732 359.64169647234775 L 733 355.22506929339556 L 734 350.8305465986697 L 735 346.46020511294836 L 736 342.11611013366644 L 737 337.8003145549176 L 738 333.5148578973126 L 739 329.2617653441649 L 740 325.04304678444294 L 741 320.8606958629563 L 742 316.71668903821893 L 743 312.6129846484278 L 744 308.55152198601047 L 745 304.53422038117367 L 746 300.5629782948789 L 747 296.63967242168667 L 748 292.7661568028865 L 749 288.9442619503263 L 750 285.17579398136974 L 751 281.46253376537345 L 752 277.8062360821009 L 753 274.20862879246613 L 754 270.67141202199264 L 755 267.1962573573851 L 756 263.78480705658734 L 757 260.4386732726949 L 758 257.15943729209994 L 759 253.9486487872224 L 760 250.80782508417605 L 761 247.73845044572576 L 762 244.74197536986918 L 763 241.81981590436996 L 764 238.9733529775762 L 765 236.20393174583464 L 766 233.51286095780586 L 767 230.90141233598877 L 768 228.3708199757425 L 769 225.9222797620859 L 770 223.55694880455817 L 771 221.27594489040308 L 772 219.0803459563326 L 773 216.97118957912778 L 774 214.94947248530752 L 775 213.0161500801054 L 776 211.17213599597346 L 777 209.41830166082423 L 778 207.75547588621973 L 779 206.18444447569993 L 780 204.705949853433 L 781 203.32069071336787 L 782 202.02932168905218 L 783 200.83245304427015 L 784 199.7306503846501 L 785 198.72443439037602 L 786 197.81428057012803 L 787 197.0006190363714 L 788 196.28383430209803 L 789 195.66426509911582 L 790 195.14220421797447 L 791 194.71789836960104 L 792 194.3915480687112 L 793 194.1633075390518 L 794 194.03328464051958 L 795 194.00154081818908 L 796 194.06809107327598 L 797 194.2329039560476 L 798 194.49590158068543 L 799 194.8569596620914 L 800 195.31590757462175 L 801 195.87252843271972 L 802 196.5265591934091 L 803 197.27769078060123 L 804 198.12556823115528 L 805 199.06979086262322 L 806 200.10991246260147 L 807 201.24544149959777 L 808 202.4758413553141 L 809 203.8005305782382 L 810 205.21888315842043 L 811 206.73022882330687 L 812 208.3338533544927 L 813 210.02899892524024 L 814 211.81486445860526 L 815 213.6906060060046 L 816 215.65533714604098 L 817 217.7081294033994 L 818 219.84801268761996 L 819 222.07397575153198 L 820 224.38496666914276 L 821 226.77989333274638 L 822 229.25762396902124 L 823 231.81698767387573 L 824 234.45677496578273 L 825 237.17573835734427 L 826 239.9725929448209 L 827 242.84601701533867 L 828 245.79465267149135 L 829 248.81710647304624 L 830 251.9119500954425 L 831 255.07772100477476 L 832 258.3129231489474 L 833 261.6160276646642 L 834 264.9854735999236 L 835 268.4196686516824 L 836 271.9169899183312 L 837 275.475784666629 L 838 279.0943711127407 L 839 282.7710392169979 L 840 286.5040514920128 L 841 290.2916438237686 L 842 294.1320263052842 L 843 298.0233840824771 L 844 301.96387821180895 L 845 305.95164652931567 L 846 309.9848045306162 L 847 314.061446261473 L 848 318.1796452184891 L 849 322.33745525952213 L 850 326.532911523373 L 851 330.7640313583206 L 852 335.02881525907 L 853 339.32524781165887 L 854 343.6512986458822 L 855 348.0049233947906 L 856 352.38406466079726 L 857 356.7866529879428 L 858 361.2106078398644 L 859 365.6538385829956 L 860 370.114245474537 L 861 374.5897206547386 L 862 379.07814914301156 L 863 383.5774098374047 L 864 388.0853765169813 L 865 392.59991884660406 L 866 397.11890338367516 L 867 401.64019458633754 L 868 406.16165582266837 L 869 410.68115038039383 L 870 415.19654247663584 L 871 419.70569826721913 L 872 424.2064868550691 L 873 428.6967812972098 L 874 433.1744596098941 L 875 437.6374057713961 L 876 442.0835107219802 L 877 446.5106733605793 L 878 450.9168015377193 L 879 455.29981304420653 L 880 459.6576365951172 L 881 463.98821280863183 L 882 468.2894951792373 L 883 472.5594510448442 L 884 476.79606254736876 L 885 480.99732758631217 L 886 485.1612607648936 L 887 489.28589432829637 L 888 493.3692790935665 L 889 497.4094853707453 L 890 501.4046038747832 L 891 505.35274662781086 L 892 509.2520478513469 L 893 513.1006648480094 L 894 516.8967788723191 L 895 520.6385959901907 L 896 524.3243479266918 L 897 527.9522929016771 L 898 531.5207164529072 L 899 535.0279322462524 L 900 538.4722828726033 L 901 541.8521406311188 L 902 545.165908298428 L 903 548.4120198834313 L 904 551.5889413673451 L 905 554.6951714286336 L 906 557.7292421524885 L 907 560.6897197245262 L 908 563.5752051083662 L 909 566.3843347067727 L 910 569.1157810060561 L 911 571.768253203413 L 912 574.3404978169262 L 913 576.8312992779223 L 914 579.2394805054133 L 915 581.5639034623539 L 916 583.8034696934436 L 917 585.9571208442237 L 918 588.0238391612279 L 919 590.0026479729411 L 920 591.8926121513466 L 921 593.6928385538415 L 922 595.40247644531 L 923 597.0207179001544 L 924 598.5467981841005 L 925 599.9799961155868 L 926 601.3196344065746 L 927 602.5650799826151 L 928 603.7157442820226 L 929 604.7710835340099 L 930 605.7305990156611 L 931 606.5938372876126 L 932 607.3603904083345 L 933 608.029896126914 L 934 608.6020380542429 L 935 609.0765458125354 L 936 609.4531951630998 L 937 609.7318081123079 L 938 609.9122529957094 L 939 609.9944445402526 L 940 609.9783439045825 L 941 609.8639586973952 L 942 609.6513429738433 L 943 609.3405972099903 L 944 608.9318682553285 L 945 608.4253492633827 L 946 607.821279600431 L 947 607.1199447323871 L 948 606.3216760898974 L 949 605.426850911717 L 950 604.4358920664366 L 951 603.3492678526477 L 952 602.1674917776379 L 953 600.8911223147221 L 954 599.5207626393242 L 955 598.057060343934 L 956 596.5007071320731 L 957 594.8524384914165 L 958 593.1130333462215 L 959 591.2833136892309 L 960 589.3641441932236 L 961 587.3564318023939 L 962 585.2611253037563 L 963 583.0792148787771 L 964 580.8117316354417 L 965 578.4597471209827 L 966 576.0243728154996 L 967 573.5067596067031 L 968 570.9080972460389 L 969 568.2296137864475 L 970 565.4725750020193 L 971 562.6382837898273 L 972 559.7280795542165 L 973 556.7433375738378 L 974 553.6854683517322 L 975 550.5559169487692 L 976 547.3561623007495 L 977 544.0877165195039 L 978 540.7521241783155 L 979 537.3509615819935 L 980 533.8858360219627 L 981 530.3583850166993 L 982 526.7702755378889 L 983 523.123203222665 L 984 519.4188915722967 L 985 515.6590911377134 L 986 511.8455786922466 L 987 507.9801563919741 L 988 504.0646509240752 L 989 500.1009126435928 L 990 496.090814699005 L 991 492.03625214703123 L 992 487.93914105708467 L 993 483.8014176057895 L 994 479.6250371620014 L 995 475.4119733627586 L 996 471.16421718059405 L 997 466.88377598266084 L 998 462.57267258211084 L 999 458.2329442821669 L 1000 453.86664191335456 L 1001 449.47582886434043 L 1002 445.0625801068295 L 1003 440.6289812149988 L 1004 436.17712737991013 L 1005 431.7091224193855 L 1006 427.22707778380544 L 1007 422.7331115582941 L 1008 418.2293474617756 L 1009 413.7179138433675 L 1010 409.2009426765803 L 1011 404.6805685518104 L 1012 400.158927667596 L 1013 395.63815682110726 L 1014 391.1203923983596 L 1015 386.6077693646214 L 1016 382.10242025548655 L 1017 377.6064741691018 L 1018 373.1220557600185 L 1019 368.6512842351379 L 1020 364.1962723522368 L 1021 359.75912542154185 L 1022 355.3419403108158 L 1023 350.94680445444055 L 1024 346.5757948669581 L 1025 342.2309771615282 L 1026 337.91440457378474 L 1027 333.62811699153093 L 1028 329.3741399907492 L 1029 325.1544838783744 L 1030 320.9711427422766 L 1031 316.8260935089146 L 1032 312.7212950090996 L 1033 308.6586870523041 L 1034 304.64018950996586 L 1035 300.66770140821404 L 1036 296.74310003044 L 1037 292.8682400301497 L 1038 289.04495255450934 L 1039 285.2750443789943 L 1040 281.5602970535614 L 1041 277.90246606074084 L 1042 274.30327998604287 L 1043 270.76443970107937 L 1044 267.2876175597828 L 1045 263.8744566080967 L 1046 260.526569807521 L 1047 257.2455392728747 L 1048 254.0329155246299 L 1049 250.89021675618528 L 1050 247.81892811640756 L 1051 244.82050100779472 L 1052 241.8963524005863 L 1053 239.0478641631414 L 1054 236.27638240890886 L 1055 233.58321686029416 L 1056 230.96964022971972 L 1057 228.43688761817896 L 1058 225.9861559315645 L 1059 223.61860331504244 L 1060 221.33534860574747 L 1061 219.13747080405392 L 1062 217.026008563669 L 1063 215.00195970079605 L 1064 213.06628072259645 L 1065 211.21988637516984 L 1066 209.46364921127258 L 1067 207.79839917797514 L 1068 206.2249232244515 L 1069 204.74396493009039 L 1070 203.35622415310186 L 1071 202.06235669978284 L 1072 200.86297401460362 L 1073 199.7586428912556 L 1074 198.74988520480127 L 1075 197.83717766505183 L 1076 197.0209515912867 L 1077 196.30159270842503 L 1078 195.67944096474363 L 1079 195.15479037122645 L 1080 194.72788886262373 L 1081 194.39893818028557 L 1082 194.1680937768242 L 1083 194.03546474265184 L 1084 194.00111375442785 L 1085 194.06505704543923 L 1086 194.22726439792947 L 1087 194.48765915737852 L 1088 194.84611826872742 L 1089 195.3024723345309 L 1090 195.85650569500908 L 1091 196.5079565299628 L 1092 197.25651698250206 L 1093 198.10183330452975 L 1094 199.0435060239139 L 1095 200.0810901332655 L 1096 201.21409530023712 L 1097 202.4419860992396 L 1098 203.76418226446805 L 1099 205.18005896411987 L 1100 206.68894709567175 L 1101 208.2901336020775 L 1102 209.98286180873973 L 1103 211.76633178109162 L 1104 213.63970070262224 L 1105 215.60208327316892 L 1106 217.65255212728385 L 1107 219.79013827247923 L 1108 222.0138315471471 L 1109 224.3225810979318 L 1110 226.7152958763316 L 1111 229.19084515429927 L 1112 231.7480590585903 L 1113 234.38572912361008 L 1114 237.10260886250234 L 1115 239.89741435620186 L 1116 242.768824860176 L 1117 245.71548342857392 L 1118 248.73599755547608 L 1119 251.8289398329561 L 1120 254.99284862563087 L 1121 258.2262287613859 L 1122 261.5275522379537 L 1123 264.89525894500196 L 1124 268.32775740139505 L 1125 271.8234255072857 L 1126 275.3806113106707 L 1127 278.99763378805415 L 1128 282.67278363885424 L 1129 286.4043240931678 L 1130 290.1904917325156 L 1131 294.0294973231871 L 1132 297.9195266617786 L 1133 301.8587414325317 L 1134 305.8452800760722 L 1135 309.87725866912757 L 1136 313.95277181481254 L 1137 318.0698935430691 L 1138 322.2266782208221 L 1139 326.4211614714275 L 1140 330.65136110298505 L 1141 334.91527804505927 L 1142 339.2108972933875 L 1143 343.53618886211103 L 1144 347.88910874308533 L 1145 352.2675998718239 L 1146 356.66959309960555 L 1147 361.09300817129224 L 1148 365.53575470840195 L 1149 369.99573319695935 L 1150 374.4708359796632 L 1151 378.9589482519089 L 1152 383.4579490611821 L 1153 387.96571230935734 L 1154 392.48010775743535 L 1155 396.99900203223024 L 1156 401.52025963453826 L 1157 406.0417439483171 L 1158 410.5613182503874 L 1159 415.07684672018394 L 1160 419.5861954490874 L 1161 424.0872334488461 L 1162 428.5778336586171 L 1163 433.05587395015914 L 1164 437.51923813068345 L 1165 441.96581694291046 L 1166 446.3935090618421 L 1167 450.80022208778496 L 1168 455.1838735351625 L 1169 459.5423918166357 L 1170 463.87371722207314 L 1171 468.17580289191517 L 1172 472.4466157844585 L 1173 476.684137636611 L 1174 480.8863659176689 L 1175 485.05131477565294 L 1176 489.1770159757629 L 1177 493.2615198305125 L 1178 497.30289612109357 L 1179 501.29923500954 L 1180 505.24864794126586 L 1181 509.14926853753997 L 1182 512.9992534774808 L 1183 516.7967833691608 L 1184 520.5400636093962 L 1185 524.2273252318232 L 1186 527.8568257428652 L 1187 531.4268499451796 L 1188 534.9357107482145 L 1189 538.3817499654788 L 1190 541.7633390981496 L 1191 545.0788801046591 L 1192 548.3268061558799 L 1193 551.5055823755625 L 1194 554.6137065656765 L 1195 557.6497099163043 L 1196 560.6121576997573 L 1197 563.4996499485896 L 1198 566.3108221171805 L 1199 569.0443457265786 L 1200 571.698928992305 L 1201 574.2733174348125 L 1202 576.7662944723144 L 1203 579.1766819957095 L 1204 581.5033409253203 L 1205 583.7451717491891 L 1206 585.9011150426771 L 1207 587.9701519691171 L 1208 589.9513047612853 L 1209 591.8436371834687 L 1210 593.6462549738995 L 1211 595.3583062673608 L 1212 596.978981997752 L 1213 598.5075162804292 L 1214 599.943186774142 L 1215 601.2853150223905 L 1216 602.5332667740436 L 1217 603.6864522830688 L 1218 604.7443265872289 L 1219 605.7063897656147 L 1220 606.5721871748945 L 1221 607.3413096641642 L 1222 608.0133937683011 L 1223 608.5881218797266 L 1224 609.0652223984987 L 1225 609.4444698606619 L 1226 609.7256850447952 L 1227 609.9087350567072 L 1228 609.9935333922375 L 1229 609.9800399781367 L 1230 609.8682611910033 L 1231 609.6582498542708 L 1232 609.3501052132444 L 1233 608.9439728882012 L 1234 608.4400448055732 L 1235 607.8385591072495 L 1236 607.1398000380366 L 1237 606.344097811333 L 1238 605.4518284530789 L 1239 604.4634136240588 L 1240 603.3793204206354 L 1241 602.2000611540132 L 1242 600.9261931081367 L 1243 599.5583182763318 L 1244 598.0970830768226 L 1245 596.5431780472529 L 1246 594.897337518357 L 1247 593.160339266936 L 1248 591.3330041483053 L 1249 589.4161957083787 L 1250 587.4108197755834 L 1251 585.317824032792 L 1252 583.1381975694735 L 1253 580.8729704142785 L 1254 578.5232130482788 L 1255 576.0900358990862 L 1256 573.5745888160993 L 1257 570.9780605271156 L 1258 568.3016780765737 L 1259 565.5467062456888 L 1260 562.714446954751 L 1261 559.8062386478767 L 1262 556.8234556605 L 1263 553.767507569898 L 1264 550.6398385290674 L 1265 547.4419265842603 L 1266 544.1752829764994 L 1267 540.8414514274103 L 1268 537.4420074097053 L 1269 533.9785574026566 L 1270 530.4527381329225 L 1271 526.8662158010789 L 1272 523.2206852942177 L 1273 519.517869384994 L 1274 515.7595179174948 L 1275 511.94740698030944 L 1276 508.0833380672035 L 1277 504.16913722578636 L 1278 500.2066541945694 L 1279 496.1977615288382 L 1280 492.144353715732 L 1281 488.04834627896577 L 1282 483.91167487361093 L 1283 479.7362943713566 L 1284 475.52417793669554 L 1285 471.27731609446533 L 1286 466.99771578918 L 1287 462.6873994366075 L 1288 458.3484039680368 L 1289 453.98277986767823 L 1290 449.59259020366636 L 1291 445.1799096531151 L 1292 440.7468235216811 L 1293 436.29542675811047 L 1294 431.82782296422846 L 1295 427.34612340083373 L 1296 422.85244598997923 L 1297 418.3489143141057 L 1298 413.83765661249333 L 1299 409.3208047755193 L 1300 404.80049333719046 L 1301 400.2788584664182 L 1302 395.75803695753325 L 1303 391.24016522049243 L 1304 386.72737827127565 L 1305 382.22180872294075 L 1306 377.7255857778076 L 1307 373.240834221261 L 1308 368.7696734176401 L 1309 364.31421630868374 L 1310 359.8765684150173 L 1311 355.45882684114633 L 1312 351.06307928442135 L 1313 346.69140304845405 L 1314 342.3458640614458 L 1315 338.02851589988546 L 1316 333.7413988180899 L 1317 329.4865387840414 L 1318 325.26594652196866 L 1319 321.0816165621391 L 1320 316.93552629830333 L 1321 312.8296350532313 L 1322 308.7658831527956 L 1323 304.7461910090307 L 1324 300.7724582125973 L 1325 296.8465626350957 L 1326 292.97035954163323 L 1327 289.14568071408127 L 1328 285.37433358543007 L 1329 281.658100385644 L 1330 277.99873729943306 L 1331 274.3979736363323 L 1332 270.8575110134765 L 1333 267.3790225514665 L 1334 263.96415208370274 L 1335 260.61451337955316 L 1336 257.3316893817341 L 1337 254.11723145825908 L 1338 250.9726586693034 L 1339 247.89945704934186 L 1340 244.89907890489326 L 1341 241.97294212819904 L 1342 239.12242952716986 L 1343 236.34888817191185 L 1344 233.65362875813722 L 1345 231.0379249877687 L 1346 228.50301296702597 L 1347 226.05009062227458 L 1348 223.6803171339237 L 1349 221.39481238862805 L 1350 219.19465645006304 L 1351 217.0808890485187 L 1352 215.0545090895512 L 1353 213.1164741819297 L 1354 211.2677001850992 L 1355 209.5090607763697 L 1356 207.84138703804254 L 1357 206.26546706466567 L 1358 204.78204559060111 L 1359 203.391823638086 L 1360 202.09545818595015 L 1361 200.89356185914554 L 1362 199.7867026392381 L 1363 198.7754035959965 L 1364 197.8601426402033 L 1365 197.0413522978089 L 1366 196.31941950553227 L 1367 195.69468542800524 L 1368 195.16744529654832 L 1369 194.737948269653 L 1370 194.4063973152363 L 1371 194.1729491147242 L 1372 194.0377139890084 L 1373 194.0007558463119 L 1374 194.06209215198788 L 1375 194.2216939202659 L 1376 194.47948572794996 L 1377 194.83534575006104 L 1378 195.28910581740845 L 1379 195.84055149606155 L 1380 196.48942218868473 L 1381 197.23541125768884 L 1382 198.07816617013896 L 1383 199.0172886643509 L 1384 200.05233493809894 L 1385 201.18281585834376 L 1386 202.40819719238186 L 1387 203.72789986030966 L 1388 205.1413002086797 L 1389 206.64773030522014 L 1390 208.24647825448199 L 1391 209.93678853425973 L 1392 211.71786235262832 L 1393 213.58885802543125 L 1394 215.54889137403393 L 1395 217.5970361431631 L 1396 219.73232443862753 L 1397 221.95374718471584 L 1398 224.26025460105868 L 1399 226.65075669872363 L 1400 229.1241237953114 L 1401 231.67918704881347 L 1402 234.31473900997213 L 1403 237.02953419288468 L 1404 239.8222896635869 L 1405 242.69168564632938 L 1406 245.636366147264 L 1407 248.6549395952504 L 1408 251.7459794994711 L 1409 254.90802512354827 L 1410 258.1395821758488 L 1411 261.43912351564177 L 1412 264.8050898747798 L 1413 268.2358905945673 L 1414 271.7299043774582 L 1415 275.285480053233 L 1416 278.90093735929815 L 1417 282.57456773472484 L 1418 286.3046351276701 L 1419 290.08937681578306 L 1420 293.9270042392145 L 1421 297.81570384584313 L 1422 301.75363794830525 L 1423 305.73894559243183 L 1424 309.7697434366851 L 1425 313.8441266421696 L 1426 317.9601697728025 L 1427 322.1159277052228 L 1428 326.3094365479988 L 1429 330.53871456970455 L 1430 334.8017631354328 L 1431 339.0965676512908 L 1432 343.4210985164365 L 1433 347.7733120822142 L 1434 352.15115161792164 L 1435 356.5525482827596 L 1436 360.97542210351054 L 1437 365.41768295747215 L 1438 369.8772315601867 L 1439 374.3519604575075 L 1440 378.8397550215154 L 1441 383.33849444983554 L 1442 387.8460527678659 L 1443 392.3602998334492 L 1444 396.8791023435207 L 1445 401.4003248422442 L 1446 405.9218307301642 L 1447 410.44148327390593 L 1448 414.9571466159317 L 1449 419.46668678388335 L 1450 423.96797269904044 L 1451 428.45887718340464 L 1452 432.9372779649403 L 1453 437.4010586805037 L 1454 441.8481098759729 L 1455 446.27633000311283 L 1456 450.68362641271085 L 1457 455.06791634350003 L 1458 459.4271279064104 L 1459 463.75920106368795 L 1460 468.0620886024069 L 1461 472.33375710192183 L 1462 476.5721878948081 L 1463 480.77537802082077 L 1464 484.9413411734404 L 1465 489.06810863854224 L 1466 493.15373022475194 L 1467 497.1962751850538 L 1468 501.19383312920394 L 1469 505.14451492652387 L 1470 509.0464535986531 L 1471 512.8978052018275 L 1472 516.6967496982717 L 1473 520.4414918163005 L 1474 524.1302618987105 L 1475 527.7613167390698 L 1476 531.3329404055035 L 1477 534.8434450515999 L 1478 538.2911717140342 L 1479 541.674491096547 L 1480 544.9918043399034 L 1481 548.2415437774685 L 1482 551.4221736760378 L 1483 554.5321909615859 L 1484 557.5701259295728 L 1485 560.5345429394839 L 1486 563.4240410932731 L 1487 566.2372548973874 L 1488 568.9728549080564 L 1489 571.6295483595543 L 1490 574.2060797751203 L 1491 576.7012315602612 L 1492 579.1138245781527 L 1493 581.4427187068643 L 1494 583.6868133781468 L 1495 585.8450480975328 L 1496 587.9164029454928 L 1497 589.8998990594212 L 1498 591.794599096218 L 1499 593.5996076752489 L 1500 595.3140718014793 L 1501 596.9371812685729 L 1502 598.4681690417726 L 1503 599.9063116203793 L 1504 601.2509293796567 L 1505 602.5013868920022 L 1506 603.6570932272334 L 1507 604.717502231843 L 1508 605.6821127870958 L 1509 606.5504690458426 L 1510 607.3221606479418 L 1511 607.9968229141812 L 1512 608.5741370186171 L 1513 609.053830139242 L 1514 609.4356755869114 L 1515 609.7194929124713 L 1516 609.9051479920332 L 1517 609.9925530903568 L 1518 609.9816669023116 L 1519 609.8724945723964 L 1520 609.665087692308 L 1521 609.3595442765605 L 1522 608.9560087161669 L 1523 608.4546717104032 L 1524 607.85577017669 L 1525 607.1595871386323 L 1526 606.3664515922703 L 1527 605.4767383506052 L 1528 604.4908678664744 L 1529 603.4093060338565 L 1530 602.2325639677034 L 1531 600.9611977624027 L 1532 599.595808228983 L 1533 598.1370406111874 L 1534 596.5855842805524 L 1535 594.9421724106274 L 1536 593.2075816304999 L 1537 591.3826316577827 L 1538 589.4681849112387 L 1539 587.4651461032269"
      stroke-linecap="butt" 
      stroke-linejoin="round" 
      stroke-miterlimit="10" 
      stroke-width="20"/>

    <text 
      x="40" 
      y="80" 
      font-family="'Microsoft YaHei UI'" 
      font-weight="bold" 
      font-size="50" 
      fill="#ffffff">
      pynanovna
    </text>
  </g>
</svg>
